<svg width="40" height="40" viewBox="0 0 40 40" fill="none" xmlns="http://www.w3.org/2000/svg">
<path d="M20 4C11.1653 4 4 11.164 4 20C4 27.0693 8.584 33.0667 14.9427 35.1827C15.7413 35.3307 16 35.8706 16 34.4133V31.4347C11.5493 32.4027 10.6227 29.5467 10.6227 29.5467C9.89467 27.6973 8.84533 27.2053 8.84533 27.2053C7.39333 26.212 8.956 26.2333 8.956 26.2333C10.5627 26.3453 11.408 27.8827 11.408 27.8827C12.8347 30.328 15.1507 29.6213 16.064 29.212C16.2067 28.1787 16.6213 27.472 17.08 27.0733C13.5267 26.6667 9.79067 25.2947 9.79067 19.1653C9.79067 17.4173 10.416 15.9907 11.4387 14.8707C11.2733 14.4667 10.7253 12.8387 11.5947 10.636C11.5947 10.636 12.9387 10.2067 15.996 12.276C17.272 11.9213 18.64 11.744 20 11.7373C21.36 11.744 22.7293 11.9213 24.008 12.276C27.0627 10.2067 28.404 10.636 28.404 10.636C29.2747 12.84 28.7267 14.468 28.5613 14.8707C29.588 15.9907 30.208 17.4187 30.208 19.1653C30.208 25.3107 26.4653 26.664 22.9027 27.06C23.476 27.556 24 28.5293 24 30.0227V34.4133C24 35.9818 24.256 35.3387 25.068 35.1813C31.4213 33.0627 36 27.0667 36 20C36 11.164 28.836 4 20 4Z" fill="black"/>
</svg>
