<svg width="40" height="40" viewBox="0 0 40 40" fill="none" xmlns="http://www.w3.org/2000/svg">
<path fill-rule="evenodd" clip-rule="evenodd" d="M4.78891 7.95207C4 9.50038 4 11.5272 4 15.581V24.419C4 28.4728 4 30.4996 4.78891 32.0479C5.48285 33.4099 6.59013 34.5172 7.95207 35.2111C9.50038 36 11.5272 36 15.581 36H24.419C28.4728 36 30.4996 36 32.0479 35.2111C33.4099 34.5172 34.5172 33.4099 35.2111 32.0479C36 30.4996 36 28.4728 36 24.419V15.581C36 11.5272 36 9.50038 35.2111 7.95207C34.5172 6.59013 33.4099 5.48285 32.0479 4.78891C30.4996 4 28.4728 4 24.419 4H15.581C11.5272 4 9.50038 4 7.95207 4.78891C6.59013 5.48285 5.48285 6.59013 4.78891 7.95207ZM15.9442 14.4539C15.9442 15.4304 15.0978 16.222 14.0537 16.222C13.0096 16.222 12.1632 15.4304 12.1632 14.4539C12.1632 13.4774 13.0096 12.6858 14.0537 12.6858C15.0978 12.6858 15.9442 13.4774 15.9442 14.4539ZM12.4218 17.5216H15.6534V27.3143H12.4218V17.5216ZM17.6247 17.5216H20.8563V18.778C21.3988 18.0879 22.4402 17.3252 24.1203 17.3252C26.9494 17.3252 27.8093 18.8458 27.8367 22.146V27.3143H24.605C24.605 26.6758 24.6006 26.0338 24.5962 25.392C24.5899 24.4817 24.5836 23.571 24.59 22.6719C24.5983 21.499 24.609 19.9849 22.8276 19.9849C21.2514 19.9849 20.8563 21.1469 20.8563 22.3039V27.3143H17.6247V17.5216Z" fill="black"/>
</svg>
