<svg width="40" height="40" viewBox="0 0 40 40" fill="none" xmlns="http://www.w3.org/2000/svg">
<path d="M8.9887 7.98361C8.69141 8.0056 8.57879 8.38202 8.81543 8.5627L11.1861 10.3727C11.5967 10.6862 12.1064 10.8427 12.6228 10.8137L29.6857 9.85672C29.8376 9.8482 29.8952 9.65461 29.7725 9.56494L26.5397 7.20297C26.1245 6.89963 25.6144 6.75385 25.101 6.79182L8.9887 7.98361Z" fill="black"/>
<path fill-rule="evenodd" clip-rule="evenodd" d="M12.843 12.7378C12.2703 12.7699 11.8225 13.2421 11.8225 13.8138V30.5456C11.8225 31.1657 12.3462 31.6579 12.9673 31.6215L30.8934 30.5696C31.4649 30.5361 31.9112 30.0644 31.9112 29.4938V12.693C31.9112 12.1359 31.4414 11.6933 30.8833 11.7246L12.843 12.7378ZM14.9313 16.6131V16.8366L16.3843 16.9208V27.8999L15.826 27.9604C15.2748 28.0201 14.8752 28.512 14.9313 29.0618L19.1755 28.867C19.6933 28.8433 20.1213 28.4566 20.1958 27.9453L20.2196 27.782L18.5131 27.4453V19.2109L24.0572 27.8383C24.5999 28.6828 25.6553 29.0427 26.6033 28.7065L27.7381 28.3041V15.9778L28.6422 15.8201C28.9009 15.775 29.0897 15.551 29.0897 15.2893V14.7317L25.3324 14.9302C24.7582 14.9605 24.3083 15.4333 24.3083 16.0064V16.1125L25.7782 16.3146V23.9259L20.0675 15.2537L15.9381 15.538C15.3712 15.577 14.9313 16.0468 14.9313 16.6131Z" fill="black"/>
<path fill-rule="evenodd" clip-rule="evenodd" d="M5.36175 29.3265L9.0304 34.0396C10.0629 35.366 11.6878 36.0964 13.3689 35.9897L32.2535 34.7909C34.3601 34.6572 36 32.9153 36 30.8115V11.4087C36 10.1071 35.3626 8.88741 34.2925 8.1413L28.3144 3.97317C27.299 3.2652 26.0704 2.92637 24.8343 3.0134L7.81943 4.21138C5.66782 4.36287 4 6.14671 4 8.29649V25.3629C4 26.7981 4.47907 28.1925 5.36175 29.3265ZM7.9717 6.36144L24.9865 5.16346C25.7282 5.11124 26.4654 5.31454 27.0746 5.73932L33.0527 9.90746C33.5444 10.2503 33.8373 10.8107 33.8373 11.4087V30.8115C33.8373 31.7781 33.0838 32.5784 32.1159 32.6399L13.2313 33.8387C12.2656 33.9 11.3321 33.4804 10.739 32.7184L7.07033 28.0053C6.48188 27.2493 6.1625 26.3197 6.1625 25.3629V8.29649C6.1625 7.27817 6.95252 6.43319 7.9717 6.36144Z" fill="black"/>
</svg>
