<svg width="40" height="40" viewBox="0 0 40 40" fill="none" xmlns="http://www.w3.org/2000/svg">
<path fill-rule="evenodd" clip-rule="evenodd" d="M8.50796 9.35822C6.24451 9.47036 4.42633 11.2427 4.27944 13.5041C4.1387 15.6708 4 18.3368 4 20.4286C4 22.5204 4.1387 25.1864 4.27944 27.353C4.42633 29.6145 6.24451 31.3868 8.50796 31.4989C11.7856 31.6613 16.4703 31.8571 20 31.8571C23.5297 31.8571 28.2144 31.6613 31.492 31.4989C33.7555 31.3868 35.5737 29.6145 35.7206 27.353C35.8613 25.1864 36 22.5204 36 20.4286C36 18.3368 35.8613 15.6708 35.7206 13.5041C35.5737 11.2427 33.7555 9.47036 31.492 9.35822C28.2144 9.19584 23.5297 9 20 9C16.4703 9 11.7856 9.19584 8.50796 9.35822ZM25.7143 20.4286L16.5714 25V15.8571L25.7143 20.4286Z" fill="black"/>
</svg>
